<svg width="192" height="363" viewBox="0 0 192 363" fill="none" xmlns="http://www.w3.org/2000/svg">
<path d="M61.7965 80.7031C61.0992 80.9713 60.4019 81.2931 59.7046 81.5077C58.5782 85.2088 56.379 88.4271 53.5361 91.2164C52.9997 95.9366 53.5897 101.032 55.628 105.431C57.6126 100.603 59.49 96.2048 60.9383 95.3466C61.6356 92.1819 62.172 88.8026 62.2256 85.5306V84.9942C62.1183 83.5996 62.0111 82.0977 61.7965 80.7031Z" fill="#20588F"/>
<path d="M62.8156 80.2212C63.0838 81.7767 63.2447 83.4396 63.2447 85.0487C67.1067 87.4625 72.8461 86.9798 77.0836 86.6043C80.0338 86.3361 82.984 86.0143 85.8805 85.4242C84.0031 83.1714 82.0721 81.0258 80.0875 78.9339C78.1565 76.8956 76.2254 74.8036 75.2599 72.1217C75.0454 71.5316 74.8308 70.8879 74.6699 70.2979C72.3634 75.0182 67.6968 78.0756 62.8156 80.2212Z" fill="#20588F"/>
<path d="M63.9956 104.091C66.3021 106.719 69.5204 108.972 72.7924 109.991C82.7694 113.156 90.4934 105.003 95.4819 97.3323C92.5854 93.6848 89.6888 90.0374 86.7387 86.4435C83.3594 87.0872 79.9265 87.5699 76.4936 87.7845C72.3633 88.0527 67.053 88.4818 63.2446 86.3362C63.1374 89.5546 62.601 92.773 61.9037 95.9377C62.4937 97.225 63.2447 100.229 63.9956 104.091Z" fill="#20588F"/>
<path d="M90.6007 153.063C89.367 145.554 84.2176 138.849 78.961 133.271L78.7464 133.056C77.8882 132.198 77.0836 131.34 76.2254 130.535C73.1679 127.531 69.9496 124.635 66.5703 122.006C67.053 126.458 67.4285 130.803 67.5894 134.397C67.8576 140.619 67.1603 146.305 66.0875 151.83C70.0568 150.382 74.348 149.577 78.4782 149.577C83.1449 149.577 87.2214 150.811 90.6007 153.063Z" fill="#20588F"/>
<path d="M77.9419 130.643C78.2638 131.018 78.6392 131.34 78.9611 131.716C81.5894 123.133 84.915 114.229 89.528 106.29C85.0759 110.421 79.6047 113.103 73.3289 111.279C70.0569 110.367 66.8386 108.49 64.3175 106.022C65.0685 110.313 65.8194 115.356 66.4095 120.344C70.5397 123.509 74.4017 126.995 77.9419 130.643Z" fill="#20588F"/>
<path d="M97.9494 188.09C97.9494 180.313 97.9494 172.481 97.8958 164.704C97.8958 164.704 97.8958 164.704 97.8958 164.65C97.8958 164.489 97.8958 164.328 97.8958 164.167C94.2483 154.941 86.417 150.006 76.5473 150.757C74.8308 150.865 73.0608 151.133 71.2907 151.508C71.1834 160.788 66.9459 170.228 63.4057 178.596C61.8501 182.297 60.1873 185.945 58.4708 189.592C60.7237 192.596 62.2256 196.458 63.0302 199.998C63.1911 200.696 63.2984 201.339 63.4593 202.037C67.6432 202.197 71.8807 201.983 76.0109 201.554C82.9304 200.803 91.2445 199.516 96.5012 194.527C96.9303 193.347 97.413 192.489 97.9494 192.113C97.9494 190.719 97.9494 189.378 97.9494 188.09Z" fill="#20588F"/>
<path d="M107.336 35.0566C105.995 32.7501 104.601 30.4436 102.884 28.4053C101.919 27.2789 100.417 25.4552 98.8076 24.9188C98.8076 27.2253 98.8076 29.5318 98.8076 31.7846C98.8076 37.2022 98.8076 42.6734 98.8076 48.091C99.1294 51.6312 101.811 53.3476 105.298 54.1522C105.352 54.1522 105.244 54.1522 105.298 54.1522C105.352 54.1522 106.103 54.3131 106.103 54.3131C109.375 54.8495 113.183 54.635 116.455 54.2595C110.93 51.3093 108.731 45.1944 108.248 41.2788C108.087 39.7232 108.141 38.275 108.302 36.934C108.087 36.2903 107.712 35.6466 107.336 35.0566Z" fill="#20588F"/>
<path d="M105.459 55.3323C102.187 56.4588 99.0222 59.0871 98.8612 62.7882C98.8612 74.8571 98.9149 86.8723 98.9149 98.9412C99.0758 98.7266 99.2903 98.5657 99.4513 98.3511C99.7195 98.0293 100.041 97.7075 100.309 97.4393C100.309 97.4393 100.739 96.9029 100.846 96.8492C100.9 96.7956 100.739 96.8492 100.846 96.8492C101.543 96.0983 102.187 95.3473 102.884 94.5964C106.103 91.0025 109.321 87.4087 112.432 83.6539C115.168 80.3819 117.85 77.3245 119.083 73.1406C119.62 71.3705 120.049 69.5468 120.532 67.884C120.532 67.8303 120.532 67.723 120.585 67.6694C121.551 64.451 122.838 61.5009 126.003 59.4089C127.558 58.3898 129.167 57.4779 130.83 56.6197C127.719 56.1369 124.662 56.0833 122.087 55.8151C120.8 55.7078 119.566 55.4396 118.493 55.0641C114.578 55.7078 109.589 56.1369 105.459 55.3323Z" fill="#20588F"/>
<path d="M62.1719 178.757C65.7121 170.443 70.0033 161.003 70.2178 151.777C68.7159 152.152 67.2677 152.581 65.873 153.118C64.532 159.393 62.6547 165.508 60.9382 171.999C59.8118 176.236 59.0072 181.493 58.4171 187.232C59.7045 184.389 60.9382 181.546 62.1719 178.757Z" fill="#20588F"/>
<path d="M67.1604 260.825C67.965 259.913 69.0914 259.377 70.4324 260.128C70.7542 260.289 71.0761 260.503 71.3443 260.771C70.3251 256.963 69.896 252.994 70.3787 249.078C70.5933 247.254 70.8615 245.43 71.1833 243.553C71.1833 243.607 71.1834 243.607 71.1297 243.66C69.4669 248.488 67.5359 252.994 63.4593 256.319C62.9229 256.748 62.3865 257.124 61.7964 257.499C63.1911 257.392 64.4784 257.553 65.6049 258.304C66.5704 258.894 66.9995 259.806 67.1604 260.825Z" fill="#20588F"/>
<path d="M34.9767 118.252C38.6242 122.65 43.6663 123.294 48.7084 122.007C49.513 119.486 51.7122 114.658 53.965 109.294C54.2869 108.489 54.6623 107.685 54.9842 106.88C52.7313 102.482 51.8731 97.2788 52.2486 92.3976C48.4402 95.7769 43.8272 98.4589 39.3751 100.497C38.946 101.731 38.4096 103.018 37.8732 104.252C35.8886 108.865 34.3866 111.601 32.7238 114.658C33.3138 115.945 34.0648 117.179 34.9767 118.252Z" fill="#20588F"/>
<path d="M92.3708 54.742C94.5164 55.6002 96.5547 56.9412 97.7348 58.7649C97.7348 56.2439 97.7348 53.7228 97.7348 51.2018C96.5011 52.9719 94.5701 54.0447 92.3708 54.742Z" fill="#20588F"/>
<path d="M79.2293 202.197C77.9956 212.121 76.7082 222.312 74.4017 232.182C73.3826 237.707 72.2562 243.285 71.5589 248.81C70.9688 253.584 71.6661 258.358 73.2217 262.863C73.2217 262.917 73.2753 262.917 73.2753 262.971C73.329 263.078 73.329 263.185 73.329 263.293C73.919 264.848 74.5627 266.35 75.3672 267.798C75.9036 266.725 76.5473 265.492 77.191 264.204C77.4056 258.197 78.2102 252.082 79.3366 246.182C81.8576 232.557 86.3633 219.201 93.9265 207.508C94.5165 203.377 95.1066 199.354 95.9112 196.404C91.2445 200.052 84.9687 201.446 79.2293 202.197Z" fill="#20588F"/>
<path d="M116.991 201.876C116.991 201.876 117.957 202.037 117.849 201.983C122.462 202.573 127.129 202.466 131.313 202.037C131.474 201.125 131.635 200.213 131.796 199.301C132.493 196.136 133.619 192.704 135.389 189.861C133.566 186.106 131.849 182.244 130.294 178.382C126.646 169.478 122.945 159.823 122.731 150.114C112.378 150.06 100.578 153.171 99.1293 164.221C99.1293 164.275 99.1293 164.328 99.1293 164.382C99.1293 164.489 99.1293 164.543 99.0756 164.65C99.0756 173.769 99.1293 182.888 99.1293 192.006C99.6657 192.382 100.148 193.294 100.631 194.527C104.761 198.765 110.715 200.964 116.991 201.876Z" fill="#20588F"/>
<path d="M65.8729 263.077C65.9266 262.756 65.9802 262.38 65.9802 262.058C66.0338 257.016 60.5626 258.572 56.9688 260.181C56.9688 260.342 56.9688 260.503 56.9688 260.61C56.7542 269.031 50.9611 272.572 48.3865 282.334C47.3673 286.089 46.5627 293.706 45.9727 302.234C50.3175 301.43 55.145 299.552 57.237 295.744C57.237 295.69 57.2906 295.69 57.2906 295.637C56.6469 289.522 58.6316 282.495 60.7235 276.809C61.7963 273.966 62.9227 271.177 64.0492 268.334C64.6928 266.779 65.4974 265.116 65.8193 263.399C65.8193 263.346 65.8193 263.238 65.8729 263.077C65.8729 263.131 65.8729 263.131 65.8729 263.077Z" fill="#20588F"/>
<path d="M123.589 241.407C118.761 229.338 117.206 215.499 116.83 203.001C111.037 202.143 105.405 200.266 101.168 196.672C102.08 200.32 102.67 205.415 102.991 209.814C106.103 215.285 108.677 221.185 110.93 227.032C116.026 240.335 119.298 254.442 119.405 268.763C119.673 269.514 119.942 270.104 120.21 270.641C121.336 269.192 122.302 267.369 122.892 265.706C125.788 257.928 125.145 249.346 123.589 241.407Z" fill="#20588F"/>
<path d="M52.4095 90.7339L52.8923 90.2512C55.306 87.8374 57.1834 85.1018 58.3098 82.0444C57.988 82.1517 57.6662 82.2589 57.3443 82.3662C52.6777 83.9217 47.7965 85.1018 42.9153 85.7991C42.3253 90.2512 41.4135 94.596 39.8579 99.048C44.31 96.9561 48.8157 94.1669 52.4095 90.7339Z" fill="#20588F"/>
<path d="M146.761 301.806C146.654 300.518 146.493 299.338 146.386 298.212C144.508 281.369 142.255 275.576 139.842 270.158C138.983 268.174 138.233 265.384 137.696 261.951C136.999 261.415 136.248 260.932 135.497 260.557C134.371 259.967 132.761 259.216 131.474 259.699C129.597 260.396 129.167 262.756 128.899 264.526C129.543 265.277 130.026 266.243 130.401 266.994C132.064 270.105 133.405 273.323 134.639 276.649C136.677 282.281 139.252 289.469 138.823 295.905C140.324 299.016 143.436 301.055 146.761 301.806Z" fill="#20588F"/>
<path d="M82.823 54.7428C84.8077 54.7428 87.436 54.6892 89.957 54.26L90.4398 54.1528C90.4398 54.1528 90.4398 54.1528 90.4934 54.1528C93.9263 53.4555 96.9838 51.8999 97.7347 48.467V48.4133C97.7347 48.3597 97.7347 48.3061 97.7347 48.1988C97.7347 48.0379 97.7347 47.6624 97.7347 47.5015C97.7347 47.3942 97.7347 47.5551 97.7347 47.5015C97.7347 39.9383 97.7348 32.3752 97.6811 24.8657C93.2827 25.2411 89.3134 31.4633 87.1142 34.628C86.685 35.2717 86.2559 35.8617 85.8268 36.5054C85.8804 37.1491 85.9341 37.9 85.9341 38.7583C86.095 44.0149 83.7349 51.8999 76.279 54.3673C78.4246 54.5819 80.6238 54.7428 82.823 54.7428Z" fill="#20588F"/>
<path d="M97.8957 161.485C97.842 141.048 97.8421 120.665 97.7884 100.229C97.3057 99.6385 96.7693 98.9948 96.2865 98.4048C88.4015 108.114 83.4667 120.826 79.8729 132.68C85.4514 138.634 90.8689 145.768 91.8344 153.975C94.3555 155.906 96.3401 158.427 97.8957 161.485Z" fill="#20588F"/>
<path d="M73.5434 63.5387C74.4552 64.987 74.8307 66.5425 75.2062 68.1517L75.3135 68.6345C75.6353 69.9218 75.9571 71.1555 76.5472 72.3892C77.8345 75.0712 79.8728 77.0022 81.8575 79.1478C85.2904 82.9025 88.4015 86.9255 91.5662 90.8412C93.229 92.8258 94.8382 94.8641 96.501 96.8488L96.8765 97.2779C97.1983 97.6534 97.5202 98.0288 97.7884 98.4043C97.7884 96.8488 97.7884 95.2932 97.7884 93.7377C97.7884 83.2244 97.7347 72.7647 97.7347 62.2514C97.6811 62.1977 97.6811 62.0904 97.6811 62.0368C97.5202 58.3357 93.5508 56.1365 90.3325 55.2782C88.2942 55.6537 86.2023 55.8146 84.4322 55.8683C80.8383 55.9219 77.1372 55.7074 73.5434 55.2246C70.915 55.9756 68.9304 56.351 66.6239 56.7265C69.3595 58.5502 71.9342 60.8567 73.5434 63.5387Z" fill="#20588F"/>
<path d="M57.0226 258.572C59.7045 257.66 62.3329 256.104 64.2639 254.173C67.7504 250.633 69.4132 245.806 70.8078 241.139C71.8806 237.492 72.8462 233.79 73.6508 230.036C73.7044 229.607 73.8117 229.177 73.8653 228.748C73.8653 228.641 73.9189 228.587 73.9726 228.534C75.7963 219.898 76.9764 211.155 78.0492 202.411C77.9955 202.411 77.9419 202.411 77.8883 202.411C73.168 203.001 68.3941 203.27 63.6738 203.109C65.1757 213.3 62.4401 223.492 58.149 232.771C58.0953 242.802 57.2907 252.189 57.0226 258.572Z" fill="#20588F"/>
<path d="M58.0954 190.88C57.3444 201.232 57.3444 212.55 57.9344 221.508C58.0953 224.351 58.2026 227.194 58.2026 229.983C62.2792 220.489 64.6393 209.814 61.9037 199.73C61.0455 196.78 59.8654 193.562 58.0954 190.88Z" fill="#20588F"/>
<path d="M135.443 80.1132C137.857 88.6955 144.187 96.7414 152.983 99.1551C152.072 96.5805 151.321 94.1667 150.301 89.4464C149.872 87.4618 149.765 85.4235 149.658 83.3315C145.474 82.9024 141.344 82.0442 137.374 80.8105C136.731 80.5423 136.087 80.3277 135.443 80.1132Z" fill="#20588F"/>
<path d="M117.957 203.109C118.332 215.07 119.781 228.158 124.179 239.798C124.179 239.798 124.608 240.817 124.662 241.032C124.716 241.3 124.608 240.763 124.662 241.032C127.558 248.166 131.581 254.656 137.321 259.859C136.516 254.066 136.194 246.717 136.248 238.403C136.248 236.526 136.302 234.38 136.355 232.02C132.6 223.009 130.026 212.978 131.152 203.162C127.022 203.591 122.463 203.645 117.957 203.109Z" fill="#20588F"/>
<path d="M84.0029 31.9457C84.7539 32.053 85.3439 32.6967 85.6121 34.7886C86.3631 33.7158 87.114 32.643 87.9186 31.6239C90.1715 28.7273 93.9262 23.4707 98.1637 23.6852C102.294 23.8998 105.62 29.9074 107.443 32.9112C107.872 33.6622 108.355 34.4131 108.784 35.1641C109.321 33.1258 110.179 31.7311 110.93 31.6775C113.022 31.5166 114.899 21.5933 113.022 21.4324C112.432 21.3787 114.738 12.4746 110.93 5.28693C108.194 0.0839077 90.7079 -2.97354 85.934 4.32142C80.7309 12.26 83.5202 21.1105 82.7156 21.3787C80.5164 22.1833 82.8765 31.7848 84.0029 31.9457Z" fill="#20588F"/>
<path d="M48.3329 123.293C48.3329 123.24 48.3329 123.24 48.3329 123.186C43.559 124.313 38.6242 123.883 34.9767 119.968C33.8503 118.734 32.8312 117.339 32.0802 115.838C30.471 118.788 28.7545 122.328 26.2871 128.175C20.8695 141.102 14.0573 164.381 12.9846 167.492C12.9309 167.653 12.8773 167.814 12.77 167.975C15.1838 170.55 18.4021 172.481 21.8351 172.856C22.1569 169.531 24.1952 165.829 29.6664 156.818C35.835 146.519 40.1261 143.515 43.7199 137.561C47.2065 131.554 48.172 125.01 48.3329 123.293Z" fill="#FF0000"/>
<path d="M72.2024 263.346C71.7733 262.649 71.2369 262.005 70.5933 261.522C68.8768 260.128 67.7504 261.415 67.053 263.078C66.5703 265.76 65.122 268.656 64.4247 270.319C60.1336 280.833 51.8195 300.518 66.2485 306.365C67.7504 302.878 69.145 299.553 70.2178 296.924C73.9189 287.698 72.5779 274.61 73.5434 271.821C73.8116 271.07 74.2407 270.158 74.7771 269.086C73.758 267.262 72.8998 265.331 72.2024 263.346Z" fill="#20588F"/>
<path d="M80.302 247.254C79.4974 251.974 78.8001 256.748 78.4783 261.576C79.122 260.074 79.7656 258.518 80.302 256.909C82.394 250.58 83.9495 241.622 84.6468 238.511C85.3441 235.4 91.9418 222.955 93.2291 213.247C93.3364 212.228 93.4973 211.208 93.6046 210.189C86.7387 221.507 82.6085 234.327 80.302 247.254Z" fill="#20588F"/>
<path d="M21.7814 173.929C18.134 173.554 14.8083 171.623 12.18 168.995C10.9999 170.872 9.22982 171.73 6.65513 174.841C3.49041 178.65 0.701172 187.071 0.701172 187.554C0.701172 190.075 5.15323 182.726 6.11874 182.887C7.03061 183.048 0.647506 198.657 1.34482 200.052C2.25669 201.876 7.45972 188.519 7.99611 188.948C8.53251 189.431 5.42142 202.68 5.74325 203.485C7.0306 206.703 10.5172 190.129 11.3754 190.558C12.2336 190.987 10.4099 203.914 11.8045 205.148C12.77 206.006 14.4329 191.63 15.452 191.47C16.4175 191.309 16.9539 204.558 17.973 202.412C19.5286 199.194 19.0995 191.362 20.2259 187.232C21.2987 183.37 21.996 180.688 21.7814 174.144C21.7814 174.09 21.7814 174.037 21.7814 173.929Z" fill="#20588F"/>
<path d="M56.0034 81.5616C56.9689 81.2397 57.9344 80.9179 58.9535 80.5424H59.0072C59.9727 80.2206 60.8846 79.8451 61.8501 79.416C61.9574 79.3624 62.011 79.3087 62.1183 79.3087C67.3213 77.0559 72.3098 73.7839 74.1871 68.5809C73.6508 66.4889 73.0607 64.5043 71.5052 62.6805C69.6278 60.4813 67.3749 58.5503 64.9612 56.9411C63.4593 57.2093 61.7428 57.5311 59.6509 57.9602C52.3559 59.4621 43.7736 66.1671 43.559 76.0904C43.5054 78.9869 43.3445 81.8298 43.0226 84.5654C47.4211 83.9753 51.8195 82.9562 56.0034 81.5616Z" fill="#20588F"/>
<path d="M53.5895 347.989C53.5895 348.74 52.4631 348.686 52.4631 347.989C52.3558 341.338 53.804 333.882 57.3442 328.035C59.0607 323.1 62.6009 314.894 65.8192 307.438C60.8308 305.346 58.417 301.645 57.5588 297.3C54.9841 300.84 50.2102 302.557 45.8654 303.361C45.8117 303.951 45.8118 304.541 45.7581 305.078C47.0991 305.99 47.8501 308.672 48.1719 309.744C49.1911 313.66 49.5129 317.844 49.6201 321.867C49.8347 330.235 49.352 338.656 48.6546 347.024C48.601 347.721 47.4746 347.721 47.5282 347.024C48.2255 339.085 48.7619 331.093 48.5474 323.1C48.4401 319.024 48.2792 314.84 47.3137 310.871C47.0991 310.012 46.4554 307.813 45.7045 306.633C44.9535 318.809 44.5781 331.736 44.4708 337.154C44.3099 347.077 41.6815 359.629 47.4746 361.292C53.2676 362.955 58.5243 355.123 60.1871 348.365C61.8499 341.66 57.237 334.794 56.486 332.326C54.3404 337.261 53.5358 342.893 53.5895 347.989Z" fill="#20588F"/>
<path d="M184.416 176.45C182.914 173.768 180.715 172.266 179.428 169.852C176.907 172.427 173.259 174.197 169.719 175.377C169.826 176.235 169.826 177.094 169.826 179.185C169.826 183.208 171.543 187.821 171.811 189.592C172.079 191.362 172.723 201.285 173.581 202.25C175.083 203.913 175.297 192.005 175.834 191.952C176.37 191.844 179.159 204.879 180.125 204.986C182.217 205.201 179.481 191.683 180.071 191.201C180.608 190.718 186.186 203.752 187.098 203.86C189.19 204.128 182.968 190.45 183.826 189.806C184.684 189.162 189.941 199.354 191.228 198.871C193.267 198.12 185.918 186.91 185.703 185.944C185.542 185.032 184.309 183.584 185.006 183.155C185.703 182.726 191.55 186.856 191.979 186.051C192.408 185.247 186.079 179.507 184.416 176.45Z" fill="#20588F"/>
<path d="M109.589 226.656C107.712 221.829 105.62 217.001 103.152 212.388C103.152 212.496 103.152 212.603 103.152 212.764C103.421 220.756 109.321 235.936 110.876 241.944C112.003 246.288 115.597 258.089 118.225 265.545C117.689 252.189 114.47 239.047 109.589 226.656Z" fill="#20588F"/>
<path d="M169.504 174.304C172.937 173.124 176.531 171.354 178.891 168.833C177.604 165.722 175.673 158.373 172.615 147.645C169.397 136.488 163.872 123.669 160.493 118.734C157.167 123.293 151.75 125.278 146.064 124.634C146.815 127.638 147.029 130.427 146.976 132.09C146.815 134.879 150.891 141.209 154.7 145.822C158.508 150.435 168.002 168.243 168.968 171.944C169.183 173.017 169.343 173.714 169.504 174.304Z" fill="#FF0000"/>
<path d="M145.796 348.687C145.903 349.384 144.776 349.384 144.669 348.687C142.953 335.599 143.757 321.492 147.405 308.672C147.244 306.687 147.029 304.756 146.868 302.986C143.596 302.342 140.485 300.572 138.608 297.837C138.501 298.427 138.393 299.017 138.232 299.553C136.999 303.844 133.512 309.047 128.631 309.637C131.635 316.771 135.121 323.852 136.677 327.446C137.213 328.679 137.535 329.645 137.696 330.503C140.861 335.706 141.451 343.108 141.773 348.741C141.826 349.438 140.7 349.438 140.646 348.741C140.378 344.074 139.949 337.905 137.803 333.078C137.428 334.741 136.141 335.545 135.175 337.208C133.512 339.997 132.547 348.633 137.213 356.679C141.88 364.725 146.922 363.062 149.014 358.181C150.623 354.373 149.282 330.449 147.727 312.051C144.776 323.905 144.24 336.725 145.796 348.687Z" fill="#20588F"/>
<path d="M137.428 297.353C138.018 290.702 135.926 283.783 133.727 277.56C133.137 275.951 128.899 263.078 126.164 264.955C124.93 265.76 123.911 266.94 122.999 268.281C122.57 269.139 122.033 269.997 121.497 270.748C121.282 271.124 121.122 271.499 120.907 271.875C122.623 275.468 122.087 285.445 123.374 293.92C123.911 297.621 125.895 303.039 128.202 308.51C133.298 308.135 137.052 301.966 137.428 297.353Z" fill="#20588F"/>
<path d="M123.16 63.7003C122.463 64.9876 122.033 66.3286 121.604 67.7769C121.604 67.7769 121.604 67.8305 121.658 67.8305C123.16 72.1217 126.754 75.0718 130.83 77.0565L131.099 77.2174C132.225 77.7538 133.405 78.2366 134.639 78.6657L134.961 78.773C136.409 79.3093 137.857 79.7385 139.252 80.1139C142.631 81.0258 146.118 81.7231 149.604 82.1522C149.336 76.7346 149.014 70.9952 144.723 64.8804C141.29 60.0528 136.945 57.9609 132.654 56.9954C128.899 58.4973 124.823 60.6428 123.16 63.7003Z" fill="#20588F"/>
<path d="M136.409 229.125C136.57 217.378 136.784 202.09 136.141 191.363C136.087 191.255 136.033 191.148 135.98 191.094C134.531 193.562 133.566 196.512 132.976 199.14C130.723 209.224 132.761 219.577 136.409 229.125Z" fill="#20588F"/>
<path d="M135.926 188.357C135.711 185.783 135.443 183.53 135.121 181.867C133.03 171.354 128.685 159.124 127.558 150.864C127.558 150.703 127.505 150.542 127.505 150.381C126.325 150.274 125.091 150.166 123.857 150.166C124.072 159.768 127.773 169.369 131.367 178.112C132.815 181.545 134.317 184.978 135.926 188.357Z" fill="#20588F"/>
<path d="M127.397 149.201C126.7 142.282 126.861 131.554 127.451 125.117C125.091 126.458 122.677 128.067 120.317 129.891L119.673 130.427C112.539 136.113 106.424 143.73 106.264 152.473C112.325 149.201 120.532 148.611 127.397 149.201Z" fill="#20588F"/>
<path d="M131.259 78.4521C131.045 80.1686 131.045 81.9387 131.152 83.7624L131.259 84.6207C131.635 88.6973 132.708 92.8811 133.727 96.7432C134.639 98.5133 136.141 101.839 137.696 105.433C139.842 101.517 141.451 97.1723 141.236 92.9348C137.857 89.18 135.443 84.4598 134.21 79.6858C133.19 79.3104 132.225 78.8813 131.259 78.4521Z" fill="#20588F"/>
<path d="M123.482 109.991C117.528 112.566 112.056 109.991 107.551 106.022C109.589 109.401 111.466 112.941 113.344 116.374C115.597 120.505 117.796 124.689 119.888 128.872C122.409 126.941 125.037 125.225 127.558 123.83C127.666 122.918 127.826 122.114 127.934 121.47C128.577 118.413 129.918 110.313 130.991 103.984C129.06 106.505 126.432 108.704 123.482 109.991Z" fill="#20588F"/>
<path d="M100.953 98.4048C100.309 99.1557 99.6121 99.853 98.9684 100.604C98.9684 109.133 99.0221 117.608 99.0221 126.136C99.0221 137.508 99.0757 148.826 99.0757 160.197C100.363 157.14 102.509 154.833 105.244 153.117C105.083 143.73 111.466 135.577 119.083 129.516C116.938 125.278 114.738 121.041 112.432 116.857C109.643 111.707 106.8 106.397 103.421 101.57C102.509 100.55 101.704 99.4776 100.953 98.4048Z" fill="#20588F"/>
<path d="M127.88 263.776C128.47 260.665 130.187 257.554 133.941 258.734C134.263 258.841 134.531 258.948 134.853 259.056C130.938 255.086 127.88 250.527 125.466 245.539C126.378 251.975 126.539 258.734 124.501 264.849C125.198 264.205 125.949 263.722 126.807 263.615C127.183 263.508 127.558 263.615 127.88 263.776Z" fill="#20588F"/>
<path d="M159.796 117.714C156.953 113.209 156.631 109.4 154.753 104.143C154.271 102.695 153.788 101.515 153.412 100.442C149.121 99.4768 145.367 97.1704 142.309 94.1129C142.202 98.4041 140.432 102.802 138.233 106.718C140.324 111.492 142.524 116.481 143.704 118.626C144.562 120.182 145.206 121.844 145.688 123.454C151.267 124.205 156.684 122.274 159.796 117.714Z" fill="#20588F"/>
<path d="M121.175 69.5476C120.639 71.6932 120.156 73.8388 119.351 75.8234C118.654 77.4862 117.689 78.9345 116.562 80.3291C115.168 82.1529 113.719 83.923 112.271 85.6931C114.631 86.1222 116.991 86.3904 119.351 86.4977C122.731 86.6049 127.558 86.8731 130.133 84.2448C129.972 82.0992 129.972 80.0073 130.24 77.969C126.378 76.038 122.999 73.4096 121.175 69.5476Z" fill="#20588F"/>
<path d="M103.635 54.9044C101.597 54.2607 99.8803 53.2416 98.8076 51.6324C98.8076 54.0998 98.8076 56.6208 98.8076 59.0883C99.934 57.2645 101.704 55.8163 103.635 54.9044Z" fill="#20588F"/>
<path d="M119.942 87.623C117.099 87.5157 114.256 87.1939 111.413 86.6575C108.302 90.3586 105.03 93.9525 101.758 97.5463C102.616 98.6191 103.421 99.6919 104.172 100.765C109.214 106.933 116.616 112.78 124.394 108.274C127.236 106.611 129.758 104.09 131.528 101.247C131.903 99.2091 132.225 97.4927 132.439 96.4735C131.528 92.987 130.616 89.2858 130.187 85.5847C127.505 87.7303 123.106 87.7303 119.942 87.623Z" fill="#20588F"/>
</svg>
