<svg width="200" height="364" viewBox="0 0 200 364" fill="none" xmlns="http://www.w3.org/2000/svg">
<path d="M73.1315 98.6732C69.5913 93.792 66.2656 88.8572 64.12 83.225C64.4419 87.4089 64.281 91.6464 63.8518 95.8839C66.7484 95.2403 70.2886 96.9031 73.1315 98.6732Z" fill="#20588F"/>
<path d="M81.0165 135.684C81.0165 135.04 80.9628 134.343 80.9628 133.699C78.0663 129.73 73.346 126.726 69.0549 124.098C69.0013 127.262 68.894 130.695 68.6794 134.075C72.2733 137.132 76.5108 139.814 81.0701 140.458C80.9092 138.956 81.0701 137.132 81.0165 135.684Z" fill="#20588F"/>
<path d="M67.8211 227.676C66.5874 224.726 65.461 221.669 64.5491 218.665C62.5108 212.228 61.1698 205.791 61.1698 199.247C61.1162 199.194 61.1162 199.14 61.0626 199.033C60.4189 195.278 59.4534 191.47 58.1124 187.876C57.7906 191.201 57.5224 195.278 57.2542 200.427C56.5569 216.144 59.0779 224.994 61.1698 231.163C61.438 232.021 61.6526 232.879 61.8135 233.791C63.5836 235.454 65.2464 237.224 66.8556 239.048C68.7866 235.776 68.5184 231.27 67.8211 227.676Z" fill="#20588F"/>
<path d="M66.2656 240.012C64.9247 238.457 63.53 236.955 62.0818 235.56C62.5645 241.192 61.3308 248.326 60.6335 258.089C60.6335 258.41 60.5799 258.679 60.5799 259.001C61.4381 258.732 62.2963 258.571 63.1009 258.518C63.2082 258.518 63.3155 258.518 63.4228 258.518C63.2619 254.602 62.9936 241.621 68.143 242.265C67.7139 241.729 67.2848 241.246 66.8557 240.709L66.2656 240.012Z" fill="#20588F"/>
<path d="M80.9091 131.822C80.8555 129.837 80.7482 127.799 80.6945 125.814C78.1735 121.362 73.3996 117.983 68.7866 115.247C69.0012 117.286 69.0548 119.914 69.0548 122.757C73.185 125.278 77.7444 128.175 80.9091 131.822Z" fill="#20588F"/>
<path d="M62.7254 102.911C62.6717 103.233 62.8327 103.555 63.1009 103.716C64.2273 104.306 65.1928 107.524 67.6066 110.85C67.982 111.332 68.2502 112.244 68.4648 113.478C68.5184 113.693 68.6257 113.907 68.8403 114.014C73.1314 116.535 77.6908 119.7 80.5337 123.616C80.5337 123.294 80.5337 122.972 80.48 122.704C80.4264 120.934 80.3727 119.11 80.3191 117.34V117.286C80.2655 115.194 80.1582 113.103 80.1045 110.957C80.0509 110.045 80.0509 109.187 79.9973 108.275C79.9973 108.275 79.9436 108.221 79.9436 108.168C79.6754 107.792 79.4072 107.363 79.139 106.988C77.798 105.057 76.4571 103.233 75.0624 101.356C75.0088 101.302 74.9552 101.248 74.9015 101.195C72.1659 99.2636 67.6602 96.3134 64.12 96.8498C63.7982 96.9035 63.53 97.1717 63.53 97.4935C63.3691 99.3709 63.0472 101.141 62.7254 102.911Z" fill="#20588F"/>
<path d="M68.7866 157.622C68.2502 157.193 67.6602 156.818 67.0701 156.442C66.1582 164.005 62.618 168.779 60.9016 173.714C59.8288 176.879 58.9706 180.097 58.3269 185.407C59.6142 188.411 60.5798 191.576 61.3307 194.741C61.438 193.614 61.5989 192.488 61.7598 191.415C62.9399 184.227 65.4609 176.128 71.0394 171.086C70.7712 169.423 70.503 167.76 70.2885 166.097C70.2885 166.097 70.2885 166.097 70.2885 166.044C69.323 163.415 68.8402 160.68 68.7866 157.622Z" fill="#20588F"/>
<path d="M74.9552 99.4769C75.1698 99.7451 75.3843 100.067 75.5989 100.335C75.5989 100.335 75.7062 100.389 75.6525 100.389C75.5989 100.335 75.8671 100.711 75.8671 100.711C77.3154 102.588 78.7636 104.465 80.1046 106.45C80.4265 103.929 81.6601 101.783 83.4302 100.013C80.6946 100.442 77.6908 100.067 74.9552 99.4769Z" fill="#20588F"/>
<path d="M96.7328 78.1285C95.2845 73.5691 93.7826 69.0634 92.1734 64.5577C89.3842 62.0367 83.752 62.1439 80.2655 61.983C77.6908 61.8221 75.1161 61.7685 72.4878 61.8221C70.5567 68.0979 67.7138 74.0519 64.0127 79.4158C65.3537 84.2434 67.6066 89.0709 70.3958 93.2548C71.5222 94.9176 72.7023 96.4732 73.8824 98.0823C77.4762 98.9406 81.821 99.6379 85.3612 98.3505C86.2731 97.6532 87.1849 97.0632 88.2041 96.5268C90.296 95.4004 92.4952 94.4349 94.7481 93.7376C95.2845 93.5766 96.0891 93.2012 96.7864 93.0402C96.7327 88.0518 96.7328 83.117 96.7328 78.1285Z" fill="#20588F"/>
<path d="M101.56 64.0761V64.0225C101.668 63.7543 101.775 63.4861 101.882 63.1642C103.92 57.9612 106.012 52.0073 109.499 47.3943C109.392 45.6778 109.284 43.9077 109.284 42.1912C105.691 45.3023 101.185 47.9843 96.8937 47.1797C93.2999 46.4824 89.9206 44.4977 86.9168 42.0303C86.9704 43.1031 86.9704 44.2295 86.9704 45.5169C86.9704 46.1606 86.9168 46.8042 86.8095 47.4479C89.2769 52.5973 91.1007 58.1221 92.9244 63.3788C92.978 63.5934 93.0853 63.8079 93.139 64.0225C93.139 64.0761 93.1926 64.1297 93.1926 64.1297C94.5872 68.1527 95.9819 72.1757 97.2692 76.1986C98.5565 72.122 100.005 68.0454 101.56 64.0761Z" fill="#20588F"/>
<path d="M68.8402 226.979C68.8402 227.032 68.8402 227.086 68.8938 227.14C70.3957 230.626 72.0586 234.059 73.9896 237.331C74.3651 237.921 74.7405 238.565 75.2233 239.262C76.1352 227.408 78.6562 215.553 80.6945 203.914C78.978 198.979 77.047 194.151 75.5451 189.109C73.936 183.638 72.3804 178.059 71.3076 172.427C66.4801 177.148 64.1199 184.389 62.9935 190.879C61.5452 199.569 62.3498 207.776 64.8709 216.143C65.9437 219.737 67.1774 223.277 68.6256 226.764C68.7329 226.764 68.8402 226.871 68.8402 226.979Z" fill="#20588F"/>
<path d="M96.7328 94.22C94.3727 94.4346 91.4761 96.0438 89.6524 96.9556C85.254 99.2621 80.9628 102.695 81.231 108.113C81.231 108.22 81.231 108.274 81.1774 108.327C81.3383 109.132 81.2847 109.99 81.2847 110.902C81.3383 112.618 81.3919 114.281 81.4456 115.998C85.4149 112.35 91.2079 107.684 96.6792 107.523C96.7328 103.124 96.7328 98.6721 96.7328 94.22Z" fill="#20588F"/>
<path d="M81.2846 141.53C78.4954 141.262 75.7598 140.296 73.0778 138.687C71.5223 137.721 70.0204 136.649 68.5721 135.522C68.143 143.514 67.4457 151.185 67.2311 154.832C67.2311 154.993 67.2311 155.1 67.1775 155.208C68.8403 156.12 70.3958 157.514 71.4686 158.426C79.4609 165.185 85.8976 173.928 91.7979 182.725C90.2424 175.215 88.0968 167.813 86.2195 160.464C84.6103 154.135 82.9474 147.806 81.2846 141.53Z" fill="#20588F"/>
<path d="M86.0585 140.297C89.2232 139.653 92.227 138.42 94.9626 136.649C95.5527 136.274 96.1427 135.898 96.6791 135.469C96.6791 132.036 96.6791 128.55 96.6791 125.117C93.8899 125.278 90.9397 126.458 88.365 127.263C86.2194 127.96 84.0738 128.657 81.9283 129.408C81.9819 130.695 82.0355 132.036 82.0892 133.324C82.1428 133.431 82.1428 133.538 82.0892 133.592C82.0892 134.289 82.1428 134.933 82.1428 135.63C82.1965 136.971 82.0892 139.224 82.2501 140.511C83.4838 140.672 84.7711 140.565 86.0585 140.297Z" fill="#20588F"/>
<path d="M96.7329 119.11C96.7329 115.677 96.7329 112.191 96.7329 108.758C91.1008 109.187 85.4687 113.853 81.553 117.555C81.6066 119.271 81.6603 120.988 81.7139 122.704C81.7675 124.528 81.8212 126.405 81.9285 128.229C84.1813 127.424 86.4342 126.673 88.687 125.976C91.1544 125.225 93.9973 124.045 96.7329 123.938C96.7329 122.382 96.7329 120.719 96.7329 119.11Z" fill="#20588F"/>
<path d="M121.192 251.277C120.388 252.564 119.637 253.852 118.832 255.139C118.51 256.855 118.457 259.323 119.958 260.449C122.158 259.108 124.571 258.089 127.039 257.553C128.219 254.442 131.384 244.572 126.073 243.767C124.357 246.235 122.748 248.756 121.192 251.277Z" fill="#20588F"/>
<path d="M61.4917 311.407C59.8288 304.648 58.917 297.675 58.3269 290.702C57.8442 284.694 57.5224 278.686 57.4687 272.679C56.4496 275.844 55.4841 279.33 55.0549 284.962C54.1431 297.085 58.0051 313.23 59.3461 325.996C62.1353 326.426 64.9782 326.801 67.7675 327.23C67.7675 326.694 67.7675 326.157 67.7675 325.621C64.3882 321.705 62.7254 316.341 61.4917 311.407Z" fill="#20588F"/>
<path d="M119.422 240.013C119.53 230.036 116.633 219.684 113.307 210.243C111.108 217.163 109.07 224.136 107.3 231.163C107.353 231.645 107.407 232.075 107.514 232.45C108.104 236.312 108.855 241.032 109.553 245.377C113.522 246.933 116.848 243.661 119.422 240.013Z" fill="#20588F"/>
<path d="M128.005 241.14L127.736 241.515C127.415 241.944 127.093 242.373 126.824 242.803C132.242 244.305 129.775 253.423 128.326 257.392C130.579 257.071 132.939 257.071 135.192 257.553C134.87 250.312 135.246 243.071 135.192 239.155C135.139 236.312 135.353 234.167 135.782 232.128C132.939 234.864 130.365 237.921 128.005 241.14Z" fill="#20588F"/>
<path d="M137.928 186.374C136.48 190.236 135.514 194.313 135.139 198.389C135.192 203.217 134.602 207.991 133.529 212.496C131.92 219.094 129.292 225.316 126.073 231.217C126.234 233.845 126.449 236.58 127.254 239.102C127.361 239.37 127.468 239.692 127.575 239.96C130.204 236.42 133.1 233.094 136.265 230.09C136.801 227.784 137.552 225.37 138.411 221.991C140.073 215.178 139.161 197.102 137.928 186.374Z" fill="#20588F"/>
<path d="M115.721 139.921C119.637 139.116 123.284 136.863 126.503 134.289C126.556 130.802 126.717 127.369 126.878 124.365C125.537 125.116 124.25 125.921 122.963 126.779C120.281 128.549 116.74 130.641 115.238 133.645C115.238 134.772 115.238 135.952 115.238 137.078C115.238 137.99 115.346 139.009 115.292 139.975C115.453 139.975 115.614 139.975 115.721 139.921Z" fill="#20588F"/>
<path d="M118.993 261.093C118.028 260.127 117.652 258.732 117.598 257.338C116.687 258.947 115.828 260.556 114.97 262.165C115.399 262.594 115.828 263.024 116.204 263.506C117.008 262.594 117.974 261.79 118.993 261.093Z" fill="#20588F"/>
<path d="M157.935 118.733C157.882 118.68 157.882 118.626 157.828 118.626C157.131 120.074 156.594 121.576 156.165 123.078C155.2 126.457 154.771 130.212 155.843 133.645C156.862 136.756 158.74 139.653 160.456 142.442C165.445 150.542 170.862 158.319 176.548 165.99C177.514 165.346 178.533 164.702 179.498 164.112C177.353 160.465 176.173 155.101 173.33 148.986C169.79 141.423 171.238 141.047 168.502 133.86C165.82 126.565 159.705 120.396 157.935 118.733Z" fill="#FF0000"/>
<path d="M140.234 305.023C141.843 292.043 140.771 281.744 137.445 271.928C137.445 271.874 137.391 271.821 137.391 271.767C137.284 279.866 137.177 288.02 136.48 296.012C135.675 305.238 133.529 315.805 128.058 323.636C128.112 324.763 128.112 326.104 128.112 327.498C130.955 327.015 133.744 326.586 136.587 326.104C137.123 320.901 139.162 314.088 140.234 305.023Z" fill="#20588F"/>
<path d="M126.878 316.555C127.468 318.432 127.897 320.202 128.004 321.704C133.207 313.444 135.246 302.394 135.568 293.061C135.836 284.532 136.05 275.95 136.319 267.421C135.782 264.686 135.46 261.682 135.299 258.678C130.15 257.605 124.84 258.732 120.495 261.521C120.388 261.628 120.28 261.736 120.119 261.736C118.939 262.486 117.867 263.398 116.847 264.417C117.384 265.705 117.491 269.245 117.437 273.536C125.752 285.605 129.882 301.965 126.878 316.555Z" fill="#20588F"/>
<path d="M80.4264 264.58C80.7483 263.507 81.1237 262.595 81.5529 261.737C79.9437 259.055 78.2809 256.373 76.5108 253.744C77.1008 256.426 77.2081 259.43 75.7598 261.629C77.369 262.488 78.9245 263.507 80.4264 264.58Z" fill="#20588F"/>
<path d="M74.4724 262.165C70.8786 260.288 67.0165 259.108 63.1009 259.591C62.2426 259.698 61.3308 259.859 60.4725 260.181C60.0434 264.043 59.3461 266.778 58.5952 269.299C58.5952 275.843 58.8633 282.387 59.3461 288.878C59.8825 295.958 60.6871 303.039 62.3499 309.958C63.4763 314.678 64.871 319.828 67.8748 323.797C67.9284 321.973 68.3039 319.989 68.8939 317.95C66.8556 306.257 67.7138 294.081 72.7559 283.192C74.4724 279.491 76.5643 275.736 79.2463 272.518C79.4072 269.729 79.7291 267.476 80.2118 265.598C78.6026 264.418 76.8325 263.292 75.0088 262.273L74.4724 262.165Z" fill="#20588F"/>
<path d="M121.461 169.692C122.533 167.278 124.089 164.328 124.893 161.377C124.893 161.377 124.893 161.646 124.893 161.377C124.893 161.163 125.162 160.197 125.162 160.197C125.269 159.715 125.323 159.285 125.323 158.803C123.392 160.197 121.621 161.753 119.905 163.308C111.913 170.603 105.53 179.347 100.541 188.948C101.292 190.611 102.419 196.994 103.545 204.45C106.71 198.764 109.821 192.971 112.878 187.178C115.828 181.439 118.832 175.646 121.461 169.692Z" fill="#20588F"/>
<path d="M69.3767 243.713C69.2694 243.713 69.484 243.766 69.3767 243.713C64.281 241.031 64.3883 254.602 64.5492 258.41C68.0894 258.41 71.5223 259.483 74.7407 261.092C76.7253 258.303 75.5453 253.529 74.4725 250.74C74.4188 250.632 74.4725 250.793 74.4725 250.74C72.8633 248.326 71.1468 245.966 69.3767 243.713Z" fill="#20588F"/>
<path d="M81.4455 206.113C79.4072 217.538 76.9934 229.124 76.2425 240.657C78.7099 243.875 82.2501 247.04 85.7903 245.645C86.2194 242.266 87.0776 239.316 87.9895 234.757C86.6485 226.55 85.0393 218.397 82.7865 210.404C82.411 209.01 81.9282 207.561 81.4455 206.113Z" fill="#20588F"/>
<path d="M92.4415 185.676C86.3266 176.343 79.6753 166.902 71.2539 159.714C70.8785 159.393 70.4494 159.017 69.913 158.588C70.1275 162.933 71.4685 166.527 73.6141 170.442C76.7788 176.235 80.0508 181.975 83.001 187.875C86.1657 194.205 89.2231 200.534 92.1733 206.971C93.2461 199.032 94.2652 191.684 94.8016 189.377C94.1043 188.251 93.3534 187.178 92.6561 186.051C92.5488 185.89 92.4415 185.783 92.4415 185.676Z" fill="#20588F"/>
<path d="M81.3381 187.017C78.388 181.17 74.9551 175.538 72.0049 169.692C72.0585 170.174 72.1658 170.657 72.2731 171.086C72.3267 171.193 72.3267 171.301 72.3267 171.354C73.5604 178.113 75.4378 184.818 77.5297 191.362C79.6753 198.067 82.5182 204.557 84.2883 211.369C86.0584 218.074 87.453 224.886 88.6868 231.752C88.8477 230.84 89.0086 229.875 89.1695 228.856C89.8668 224.726 90.886 216.787 91.9587 209.009C88.5258 201.607 84.9856 194.258 81.3381 187.017Z" fill="#20588F"/>
<path d="M82.0892 60.9637C84.9321 61.1783 88.7941 61.2856 91.5833 62.7875C90.0278 58.3354 88.4723 53.7224 86.4876 49.3776C85.1466 55.2243 81.0164 58.6572 75.4379 60.6955C77.6371 60.6955 79.89 60.8028 82.0892 60.9637Z" fill="#20588F"/>
<path d="M56.0204 121.308C55.1086 121.951 54.1431 122.595 53.1776 123.185C49.7446 125.331 45.5608 127.905 41.3232 127.852C41.1087 131.875 39.875 135.737 38.0512 139.599C33.4919 149.146 27.377 158.104 20.833 166.365C22.174 167.277 23.515 168.188 24.8023 169.1C26.1969 163.951 33.3846 154.886 35.9057 151.56C38.6949 147.913 45.9899 146.357 50.6565 137.668C54.4113 130.641 55.2159 125.223 56.0204 121.308Z" fill="#FF0000"/>
<path d="M73.8824 283.3C69.2158 293.437 67.9821 304.594 69.5913 315.59C72.2733 307.384 77.2617 298.587 78.1199 294.671C79.2464 289.361 78.8172 282.441 79.0854 274.61C79.0854 274.556 79.0854 274.556 79.0854 274.503C76.9399 277.238 75.2234 280.296 73.8824 283.3Z" fill="#20588F"/>
<path d="M24.5878 170.282C21.9058 168.458 19.1702 166.581 16.4882 164.757C15.0936 167.761 13.2162 168.512 10.6952 170.067C7.95958 171.73 0.181867 179.937 -0.13997 182.19C-0.13997 182.243 -0.13997 182.297 -0.13997 182.351C1.68377 180.849 3.56115 179.4 5.5458 178.113C9.83696 175.324 16.5419 176.343 19.5457 171.73C19.9212 171.14 20.8867 171.676 20.5112 172.32C17.4001 177.094 11.768 175.806 7.42318 178.328C7.42318 178.328 7.36955 178.328 7.36955 178.381C7.36955 178.918 7.10135 179.722 6.67223 180.902C5.65309 183.423 -0.89092 191.04 -0.998199 194.312C-1.15912 197.423 9.51512 183.209 10.1588 183.691C10.8025 184.174 2.59564 196.887 3.99027 200.105C4.90213 202.251 13.8063 185.73 14.5572 186.052C15.3082 186.32 9.67603 199.354 11.8216 202.09C13.109 203.753 18.312 187.393 19.5457 186.373C20.7794 185.354 20.7794 197.799 22.2813 197.96C23.7832 198.12 23.0322 191.255 23.4077 185.515C23.7296 180.044 24.7487 178.488 24.6951 170.657C24.5878 170.55 24.5878 170.389 24.5878 170.282ZM20.0284 184.872C16.5955 185.032 13.0553 183.906 10.2124 181.975C9.62239 181.546 10.1588 180.58 10.8025 181.01C13.4844 182.833 16.8101 183.906 20.0284 183.745C20.7794 183.691 20.7794 184.818 20.0284 184.872Z" fill="#20588F"/>
<path d="M59.4534 327.177C59.507 327.499 59.507 327.767 59.5606 328.089C60.6871 341.124 46.5263 352.066 46.3654 355.713C46.2581 358.181 51.0856 360.38 55.2159 361.721C56.2887 360.702 57.3614 359.629 58.3806 358.556C60.258 356.625 62.9936 354.372 63.6372 351.637C64.6564 346.917 64.3346 341.821 63.9054 337.047C63.8518 336.35 64.9782 336.35 65.0319 337.047C65.4073 341.874 66.051 347.668 64.6028 352.388C63.7982 354.963 61.4917 357.054 59.6679 358.932C58.5951 360.005 57.5224 361.077 56.4496 362.15C57.9515 362.633 59.2925 362.955 60.1507 363.116C63.369 363.759 67.2847 354.855 67.8748 348.15C68.3575 342.465 67.8211 335.974 67.8211 328.357C64.9782 327.928 62.189 327.553 59.4534 327.177Z" fill="#20588F"/>
<path d="M47.7063 93.9529C50.2274 92.2365 52.6948 90.2518 54.7867 88.3208C62.6717 80.9722 68.2502 71.7462 71.4149 61.5547C66.641 62.0911 60.9016 61.7693 54.5722 66.4896C46.5262 72.4972 47.7599 91.0028 47.7599 93.5238C47.7599 93.6847 47.76 93.8457 47.7063 93.9529Z" fill="#20588F"/>
<path d="M40.3578 120.343C41.0014 122.489 41.3233 124.634 41.3233 126.726C45.5072 126.726 49.7447 124.044 53.1239 121.845C54.1967 121.148 55.2695 120.397 56.3423 119.7C56.3959 119.378 56.5032 119.056 56.6105 118.734C57.5224 115.569 59.5607 108.596 61.1698 105.378C61.7062 102.589 62.2426 99.7993 62.5645 96.9564L62.6181 96.3128C63.2082 91.2707 63.3691 86.1749 62.779 81.1865C60.6335 84.0293 58.2733 86.7113 55.5914 89.1251C53.0703 91.4316 50.3347 93.6844 47.3845 95.5082C46.7945 97.2246 45.4535 98.9411 43.898 101.784C41.7524 105.7 40.626 111.493 39.7141 115.838C39.6068 116.374 39.4459 116.857 39.2313 117.339C39.6605 118.305 40.0896 119.324 40.3578 120.343Z" fill="#20588F"/>
<path d="M114.273 107.952C114.166 104.626 112.449 101.89 109.982 99.7449C109.767 99.6913 109.66 99.584 109.606 99.4231C106.281 96.6874 101.721 94.971 98.0738 94.22C98.0202 94.22 97.9665 94.22 97.8592 94.22C97.8592 98.6721 97.8592 103.124 97.8592 107.576C103.867 108.113 109.66 112.243 114.219 116.159C114.219 114.388 114.219 112.565 114.219 110.795C114.219 109.615 114.273 107.952 114.273 107.952C114.166 107.898 114.273 108.113 114.273 107.952Z" fill="#20588F"/>
<path d="M190.923 179.239C190.923 179.186 190.87 179.132 190.87 179.132C190.441 178.81 190.119 178.327 189.743 178.006C189.582 177.898 189.422 177.952 189.368 177.952C189.1 177.952 188.832 177.952 188.617 177.952C187.222 177.898 185.774 177.791 184.379 177.523C181.59 176.986 178.372 176.075 177.085 173.285C176.763 172.642 177.728 172.052 178.05 172.695C179.606 176.075 184.594 176.611 187.92 176.772C189.368 176.826 189.636 176.879 190.977 177.362C190.977 177.362 190.923 177.416 190.977 177.362C190.977 177.362 197.736 181.278 198.755 181.117C199.935 180.902 194.356 175.324 190.977 172.803C187.598 170.282 184.916 169.906 181.429 166.419C181.376 166.366 181.322 166.312 181.268 166.259C176.28 169.531 177.567 168.672 172.579 171.998C173.383 173.768 173.598 174.358 173.383 179.668C173.115 187.178 176.012 197.53 177.031 198.067C178.372 198.764 176.924 188.412 178.05 188.036C179.176 187.661 183.682 202.358 186.471 203.002C188.188 203.377 182.717 189.806 183.575 188.948C185.184 187.392 190.709 201.339 193.766 201.5C195.483 201.553 188.402 187.446 188.832 186.534C189.69 184.496 196.663 194.044 199.506 194.312C201.812 194.527 192.533 183.155 191.889 181.76C191.406 181.063 191.084 180.098 190.923 179.239ZM187.866 181.331C185.989 184.281 181.215 184.764 178.05 184.871C177.353 184.925 177.353 183.799 178.05 183.745C180.786 183.638 185.291 183.262 186.901 180.741C187.276 180.151 188.242 180.688 187.866 181.331Z" fill="#20588F"/>
<path d="M171.345 169.315C172.793 168.403 174.188 167.492 175.636 166.526C169.146 157.729 162.709 148.771 157.345 139.277C155.414 135.898 154.395 132.572 154.288 129.086C151.23 125.814 146.456 123.668 142.541 121.63C141.575 121.147 140.61 120.664 139.644 120.128C140.61 125.063 142.004 131.768 143.345 135.522C144.847 139.545 154.663 149.63 158.793 152.472C162.924 155.262 169.468 163.898 171.238 168.94C171.238 169.101 171.291 169.208 171.345 169.315Z" fill="#FF0000"/>
<path d="M84.2884 33.4473C85.3612 33.8764 86.434 35.9683 86.8094 40.5276C89.7596 43.0487 93.0852 45.3015 96.5718 45.9452C101.131 46.8035 105.744 43.9069 109.284 40.6349C109.338 38.4893 109.553 36.612 109.982 35.3246C111.269 31.409 111.43 34.0909 113.522 29.9607C116.043 25.0259 115.507 23.0412 115.077 22.7194C114.595 22.4512 115.238 17.7846 114.434 12.7961C113.576 7.86127 109.767 0.619944 98.2346 0.351747C86.7558 0.0835497 81.821 7.53943 82.0355 15.9608C82.3037 26.045 80.9091 20.1447 80.8018 23.6849C80.7482 27.2787 83.4302 33.0718 84.2884 33.4473Z" fill="#20588F"/>
<path d="M136.48 327.23C133.69 327.713 130.901 328.142 128.112 328.625C128.058 337.154 127.683 348.847 128.005 353.299C128.434 359.199 132.51 361.989 135.031 362.954C135.621 363.169 136.748 363.008 138.142 362.632C135.085 360.111 132.081 357.108 131.491 353.192C130.847 348.579 131.062 343.751 131.33 339.085C131.384 338.387 132.51 338.387 132.457 339.085C132.242 343.322 132.081 347.721 132.51 351.958C132.939 356.357 136.104 359.521 139.43 362.203C144.043 360.594 150.265 357.054 150.211 355.391C150.104 352.441 138.625 337.475 136.909 331.951C136.48 330.61 136.372 329 136.48 327.23Z" fill="#20588F"/>
<path d="M75.2771 241.408C75.2234 241.354 75.1698 241.301 75.1161 241.193L75.0625 241.14C72.9169 238.082 71.0396 234.757 69.4304 231.324C69.6449 234.381 69.2695 237.492 67.6603 239.96C73.1315 246.343 77.8518 253.638 82.1429 260.665C82.3575 260.289 82.572 259.967 82.8402 259.645C85.0931 256.534 85.2004 253.209 85.6295 247.576C85.6295 247.308 85.6831 247.094 85.6831 246.826C81.8211 247.684 77.6372 244.573 75.2771 241.408Z" fill="#20588F"/>
<path d="M117.384 275.468C117.277 282.816 116.955 291.506 117.92 294.939C119.154 299.284 123.606 307.437 126.181 314.41C128.273 301.107 124.572 286.625 117.384 275.468Z" fill="#20588F"/>
<path d="M101.453 184.925C101.399 181.813 102.472 178.488 103.223 175.538C104.564 170.496 106.066 165.453 107.622 160.465C109.606 154.028 111.698 147.592 113.897 141.208C108.373 141.423 102.204 138.795 97.4301 136.381C97.0546 136.703 96.5718 136.917 96.3573 137.078C94.4263 138.366 92.388 139.492 90.2424 140.243C87.6141 141.155 85.0394 141.638 82.572 141.53C86.434 155.959 90.7788 170.442 93.568 185.139C94.2117 186.158 94.8554 187.124 95.4991 188.143C96.4646 187.499 98.2347 187.821 99.6829 188.304C100.166 187.231 100.809 186.051 101.453 184.925Z" fill="#20588F"/>
<path d="M120.978 249.559C122.801 246.663 124.732 243.766 126.771 240.977C126.503 240.548 126.342 240.065 126.181 239.636C125.483 237.49 125.215 235.238 125.054 232.985C123.767 235.291 122.372 237.544 120.924 239.797C118.993 242.801 116.687 246.502 112.717 246.77C111.698 246.824 110.733 246.716 109.767 246.448C110.464 250.847 111.054 254.655 111.323 256.318C111.644 258.41 112.824 259.912 114.112 261.306C116.204 257.283 118.51 253.368 120.978 249.559Z" fill="#20588F"/>
<path d="M19.921 165.722C25.8214 158.266 31.3462 150.274 35.691 141.799C39.0167 135.362 41.6986 128.496 39.4994 121.201C39.2312 120.343 38.9094 119.485 38.5339 118.573C36.8175 121.416 33.8137 123.937 31.1853 128.496C27.6988 134.504 27.5378 136.542 26.5187 142.711C25.4995 148.665 18.6873 159.714 16.9709 163.63C17.9364 164.381 18.9019 165.078 19.921 165.722Z" fill="#FF0000"/>
<path d="M123.552 99.6382C121.3 102.267 118.779 104.68 116.365 107.201C116.043 107.523 115.721 107.899 115.346 108.221C115.346 108.381 115.346 108.596 115.346 108.757C115.346 109.937 115.346 111.117 115.346 112.297C115.346 116.213 115.292 120.128 115.292 124.044C117.169 121.523 120.066 119.592 122.587 117.929C124.196 116.856 125.859 115.837 127.575 114.925C127.629 114.55 127.629 114.228 127.683 114.014C128.058 111.278 131.277 105.378 133.154 103.018C132.886 101.301 132.617 99.5846 132.457 97.8145C131.169 96.3126 126.556 98.4582 123.552 99.6382Z" fill="#20588F"/>
<path d="M125.966 161.538C125.805 164.756 125.323 167.921 124.679 171.086C127.951 173.285 130.15 177.362 131.652 180.848C133.315 184.71 134.334 188.894 134.817 193.185C135.46 190.074 136.426 187.017 137.66 184.067C137.606 183.852 137.606 183.584 137.552 183.369C136.211 173.66 131.974 164.81 128.595 156.657C127.897 157.086 127.146 157.569 126.449 158.051C126.503 159.178 126.288 160.358 125.966 161.538Z" fill="#20588F"/>
<path d="M122.748 61.4474C119.959 61.4474 117.116 61.6083 114.327 61.8229C111.001 62.0911 105.154 62.0374 102.58 64.5585C102.472 64.773 102.419 65.0412 102.311 65.2558C100.702 69.4933 99.2002 73.7844 97.8592 78.1292C97.8592 79.7384 97.8592 81.4012 97.8592 83.0104C97.8592 86.3897 97.8592 89.769 97.8592 93.0946C101.936 93.9529 106.871 95.7766 110.411 98.7268C114.38 99.3168 119.047 100.121 122.909 98.7268C125.001 96.313 126.878 93.6847 128.273 90.7345C129.936 87.1407 131.384 83.3323 132.457 79.4702C131.384 77.9147 130.418 76.3055 129.506 74.75C126.985 70.5125 124.733 66.0067 122.748 61.4474Z" fill="#20588F"/>
<path d="M129.238 91.3239C128.112 93.6841 126.664 95.8296 125.108 97.8679C127.254 96.9561 130.418 95.8296 132.349 96.4197C131.974 92.5576 131.813 88.5883 131.974 84.7799C131.169 86.9791 130.257 89.1783 129.238 91.3239Z" fill="#20588F"/>
<path d="M109.66 49.4317C109.66 49.3244 109.66 49.2171 109.606 49.1099C106.817 53.1865 104.94 58.1213 103.223 62.6806C106.066 61.1251 110.25 61.0178 113.093 60.8033C116.15 60.5351 119.208 60.3741 122.265 60.3205C122.265 60.2669 122.211 60.2132 122.211 60.1596C120.656 59.8914 119.261 59.5696 118.189 59.2477C111.162 57.1021 110.143 54.2056 109.66 49.4317Z" fill="#20588F"/>
<path d="M115.292 126.136C115.292 127.96 115.292 129.73 115.292 131.554C116.901 129.462 119.369 127.853 121.407 126.512C123.231 125.278 125.054 124.152 126.985 123.079C127.146 120.29 127.361 117.929 127.468 116.267C126.181 117.018 124.947 117.769 123.713 118.573C120.71 120.504 117.008 122.811 115.292 126.136Z" fill="#20588F"/>
<path d="M115.56 106.396C117.545 104.412 119.529 102.427 121.46 100.389C118.403 100.871 115.024 100.549 111.859 100.067C113.629 101.89 114.863 104.143 115.238 106.718C115.346 106.611 115.453 106.503 115.56 106.396Z" fill="#20588F"/>
<path d="M104.296 175.807C103.706 178.006 102.955 180.42 102.687 182.78C107.246 175.163 112.825 168.083 119.529 162.182C122.211 159.822 125.054 157.462 128.165 155.585C126.717 151.669 126.395 143.677 126.503 135.738C123.177 138.313 119.422 140.458 115.453 141.102C115.346 141.102 115.238 141.102 115.131 141.156C112.771 148.075 110.518 154.995 108.372 161.968C106.924 166.527 105.53 171.14 104.296 175.807Z" fill="#20588F"/>
<path d="M154.288 127.531C154.395 125.331 154.878 123.079 155.736 120.772C156.165 119.699 156.648 118.573 157.131 117.5C156.326 115.515 156.487 112.297 155.307 108.221C153.805 103.178 150.372 100.711 149.246 96.259C149.192 95.9371 149.085 95.6153 149.031 95.2398C142.648 92.3433 137.499 86.7648 133.422 80.8644C132.725 86.2284 132.939 91.8069 133.53 97.2781C133.583 97.3317 133.476 97.2245 133.53 97.2781L133.637 97.9754C133.798 99.3164 133.959 100.657 134.173 101.945C135.353 101.462 138.357 113.531 139.323 118.734C140.932 119.538 142.541 120.397 144.15 121.255C147.529 123.079 151.445 124.902 154.288 127.531Z" fill="#20588F"/>
<path d="M123.552 60.4817C123.66 60.589 123.713 60.7499 123.713 60.9109C125.537 65.1484 127.575 69.2786 129.882 73.1943C134.334 80.9184 140.449 89.8761 148.87 94.0064C148.334 89.1252 148.709 81.4548 146.349 72.3361C144.096 63.8074 131.92 61.93 123.552 60.4281C123.499 60.4281 123.552 60.4281 123.552 60.4817Z" fill="#20588F"/>
<path d="M122.48 235.132C123.338 233.737 124.143 232.342 124.947 230.894C124.947 230.841 125.001 230.841 125.001 230.787C128.648 224.136 131.598 217.055 132.993 209.546C133.637 206.166 133.959 202.573 134.012 198.979C134.012 198.925 134.012 198.871 134.012 198.818C134.012 198.764 134.012 198.711 134.012 198.603C134.012 192.059 132.832 185.462 129.989 179.722C128.702 177.094 126.932 174.036 124.464 172.213C123.821 175.27 123.016 178.22 122.265 181.224C120.173 189.002 117.706 196.726 115.185 204.343C114.756 205.684 114.327 207.025 113.897 208.366C117.33 217.806 120.334 228.159 120.549 238.243C121.246 237.17 121.943 236.097 122.48 235.132Z" fill="#20588F"/>
<path d="M114.166 122.65C114.166 120.988 114.166 119.325 114.166 117.716C109.928 114.068 103.599 108.919 97.8056 108.758C97.8056 113.853 97.8056 118.949 97.8056 124.045C97.8592 124.045 97.8592 124.045 97.9128 124.045C103.384 124.581 108.909 126.566 114.166 128.336C114.166 127.692 114.166 126.995 114.166 126.351V125.922C114.166 124.796 114.166 123.723 114.166 122.65Z" fill="#20588F"/>
<path d="M114.166 140.136C114.326 138.956 114.112 136.703 114.112 135.523C114.112 133.485 114.112 131.5 114.112 129.462C108.963 127.745 103.277 125.492 97.8591 125.117C97.8055 125.117 97.8055 125.117 97.7519 125.117C97.7519 127.102 97.7519 129.086 97.7519 131.071C97.7519 132.519 97.7519 133.914 97.7519 135.362C102.419 137.669 108.802 140.511 114.166 140.136Z" fill="#20588F"/>
<path d="M112.717 208.419C112.717 208.311 112.771 208.204 112.825 208.097C113.146 207.024 113.522 205.951 113.844 204.879C116.365 197.208 118.832 189.538 120.924 181.814C121.836 178.381 122.748 174.894 123.499 171.408C123.499 171.3 123.499 171.193 123.552 171.086C123.928 169.316 124.25 167.492 124.464 165.722C123.928 167.009 123.284 168.243 122.801 169.369C120.119 175.431 117.169 181.385 114.058 187.285C110.733 193.668 107.3 200.051 103.759 206.327C104.94 214.105 106.066 222.74 106.871 228.265C108.641 221.56 110.625 214.963 112.717 208.419Z" fill="#20588F"/>
</svg>
